Coordinates
version=1
nRows=13
nColumns=40
inDegrees=yes

Units are S.I. units (second, meters, Newtons, ...)
If the header above contains a line with 'inDegrees', this indicates whether rotational values are in degrees (yes) or radians (no).

endheader
time	pelvis_tilt	pelvis_list	pelvis_rotation	pelvis_tx	pelvis_ty	pelvis_tz	hip_flexion_r	hip_adduction_r	hip_rotation_r	knee_angle_r	knee_angle_r_beta	ankle_angle_r	subtalar_angle_r	mtp_angle_r	hip_flexion_l	hip_adduction_l	hip_rotation_l	knee_angle_l	knee_angle_l_beta	ankle_angle_l	subtalar_angle_l	mtp_angle_l	lumbar_extension	lumbar_bending	lumbar_rotation	arm_flex_r	arm_add_r	arm_rot_r	elbow_flex_r	pro_sup_r	wrist_flex_r	wrist_dev_r	arm_flex_l	arm_add_l	arm_rot_l	elbow_flex_l	pro_sup_l	wrist_flex_l	wrist_dev_l
      0.00000000	     -0.32706990	      2.27279178	    -83.68192227	      0.20578199	      0.85092387	     -0.12095234	     -5.42956548	      5.08363300	    -13.59345805	     14.70753027	      0.25669483	     10.80765844	      0.00000000	      0.00000000	     30.23877788	     -1.10257388	     -6.84451420	     11.47548466	      0.20028499	     -1.93682272	      0.00000000	      0.00000000	     -6.33848514	     -0.65351002	     -1.18944370	     -4.40615583	     -6.60111841	      4.53577089	     38.12480676	     89.07803603	    -23.51083036	      5.46093415	     -6.02243268	     -7.19031432	      3.44343356	     39.45858990	     89.23971265	    -23.60319041	     -2.45408562
      0.01000000	     -0.41245189	      2.39567786	    -83.80130119	      0.20669906	      0.85006270	     -0.11716505	     -5.57678281	      5.08487710	    -13.58244412	     14.73368404	      0.25715130	     10.83149915	      0.00000000	      0.00000000	     30.09717713	     -1.10223803	     -6.83749480	     11.45600007	      0.19994492	     -1.94966455	      0.00000000	      0.00000000	     -6.19827205	     -0.57549846	     -1.21732483	     -4.40806326	     -6.59115323	      4.53276066	     38.12492133	     89.07969962	    -23.50753626	      5.46261764	     -6.11616863	     -7.19712768	      3.45463058	     39.40046749	     89.20837652	    -23.59933186	     -2.44181291
      0.02000000	     -0.56979206	      2.59206868	    -84.01184745	      0.20752234	      0.84914299	     -0.11323012	     -5.68773437	      5.17292353	    -13.39780334	     14.64892033	      0.25567189	     10.94107917	      0.00000000	      0.00000000	     29.85817954	     -1.18527134	     -6.82244436	     11.08279030	      0.19343118	     -1.97438672	      0.00000000	      0.00000000	     -5.94202360	     -0.43878185	     -1.11834845	     -4.41995271	     -6.60404961	      4.56756960	     38.02122250	     89.08448835	    -23.47953466	      5.48563623	     -6.16863537	     -7.15992042	      3.43198656	     39.19122790	     89.24784889	    -23.58740221	     -2.38586347
      0.03000000	     -0.64294042	      2.72826842	    -84.15654434	      0.20846314	      0.84828566	     -0.10928494	     -5.82801531	      5.15563109	    -13.34730216	     14.67932485	      0.25620255	     10.95105350	      0.00000000	      0.00000000	     29.68654043	     -1.19327835	     -6.77400845	     11.05623824	      0.19296776	     -2.05024876	      0.00000000	      0.00000000	     -5.79891026	     -0.38055476	     -1.14402552	     -4.41845558	     -6.58806536	      4.57088613	     38.01783443	     89.08300233	    -23.47547092	      5.48470909	     -6.27462041	     -7.17320235	      3.43838266	     39.10322333	     89.20863610	    -23.58546898	     -2.36793157
      0.04000000	     -0.76372102	      2.93380829	    -84.37126559	      0.20934079	      0.84742201	     -0.10525094	     -5.91810590	      5.19547200	    -13.11666611	     14.65151075	      0.25571710	     11.00637131	      0.00000000	      0.00000000	     29.41270023	     -1.24456495	     -6.67468853	     10.61974405	      0.18534950	     -2.38325760	      0.00000000	      0.00000000	     -5.55997835	     -0.28997248	     -1.07717720	     -4.41560485	     -6.57257040	      4.60466342	     37.89289314	     89.08581107	    -23.45609872	      5.49685331	     -6.32860804	     -7.14967926	      3.40921067	     38.84654143	     89.24894961	    -23.58466658	     -2.30782303
      0.05000000	     -0.82747220	      3.08951884	    -84.55184202	      0.21030024	      0.84663525	     -0.10111520	     -6.04226609	      5.15291667	    -13.02701023	     14.68751538	      0.25634550	     11.00830544	      0.00000000	      0.00000000	     29.19572546	     -1.27546473	     -6.59565798	     10.49079460	      0.18309891	     -2.62266544	      0.00000000	      0.00000000	     -5.39644665	     -0.23521780	     -1.10418482	     -4.40288187	     -6.55291423	      4.61143292	     37.86348227	     89.08346156	    -23.45097839	      5.49367972	     -6.45102541	     -7.16099811	      3.41452776	     38.69505907	     89.22589776	    -23.58383788	     -2.27798598
      0.06000000	     -0.72718045	      3.31819462	    -84.89436657	      0.21109312	      0.84609388	     -0.09715194	     -6.06614220	      4.92060735	    -12.53616718	     14.75658032	      0.25755091	     10.97098957	      0.00000000	      0.00000000	     28.72661068	     -1.16824612	     -6.53936746	      9.54934562	      0.16666752	     -4.14311090	      0.00000000	      0.00000000	     -5.19844186	     -0.39936359	     -0.89913297	     -4.32440069	     -6.52935324	      4.75832057	     37.57932738	     89.08072688	    -23.40024824	      5.42490786	     -6.36798839	     -7.17862442	      3.50323478	     38.25838585	     89.23407729	    -23.55938971	     -2.19797784
      0.07000000	     -0.77294576	      3.48464130	    -85.06805350	      0.21213842	      0.84550727	     -0.09293089	     -6.15584902	      4.85342592	    -12.42129235	     14.84072456	      0.25901951	     10.97474391	      0.00000000	      0.00000000	     28.37728268	     -1.17025155	     -6.53664242	      9.02699902	      0.15755085	     -4.86957530	      0.00000000	      0.00000000	     -5.04202154	     -0.36963304	     -0.93812348	     -4.26683107	     -6.47585149	      4.73162386	     37.41031618	     89.07838377	    -23.40885632	      5.39060355	     -6.41202522	     -7.17899942	      3.48990891	     37.93547463	     89.23936743	    -23.56805743	     -2.14861613
      0.08000000	     -0.55729312	      3.57611823	    -85.31556331	      0.21312689	      0.84524321	     -0.08870868	     -6.32726328	      4.48409214	    -12.25748522	     14.96696900	      0.26122289	     10.93563171	      0.00000000	      0.00000000	     27.88524735	     -0.96271803	     -6.58623149	      8.39391976	      0.14650154	     -6.24094804	      0.00000000	      0.00000000	     -5.03768803	     -0.63697647	     -0.89735645	     -4.20778820	     -6.39683050	      4.79593635	     37.23439225	     89.07507086	    -23.43399135	      5.22068807	     -6.41151745	     -7.26799673	      3.64190808	     37.62937769	     89.21793208	    -23.57789979	     -2.15848501
      0.09000000	     -0.61705948	      3.70856590	    -85.43206898	      0.21416474	      0.84476302	     -0.08422784	     -6.46688776	      4.43517084	    -12.21372484	     15.05801557	      0.26281195	     10.89145413	      0.00000000	      0.00000000	     27.69886190	     -1.02746706	     -6.55514493	      8.33260897	      0.14543146	     -6.47731977	      0.00000000	      0.00000000	     -4.92998894	     -0.61069638	     -1.02006866	     -4.21594437	     -6.32569971	      4.77913126	     37.22364983	     89.07040130	    -23.44282076	      5.21134861	     -6.55090236	     -7.32482149	      3.63343339	     37.45190653	     89.20600540	    -23.58553916	     -2.13299389
      0.10000000	     -0.60916243	      3.91451239	    -85.51128997	      0.21548059	      0.84463623	     -0.08023746	     -6.39110193	      4.27119287	    -11.99062350	     15.33618618	      0.26766694	     10.50919823	      0.00000000	      0.00000000	     27.33039190	     -0.94141985	     -6.52082345	      7.44788518	      0.12999012	     -8.37402962	      0.00000000	      0.00000000	     -4.80993853	     -0.63330207	     -1.13842037	     -4.06316343	     -6.23502434	      4.68487850	     36.93056562	     89.07509044	    -23.49260786	      5.19339008	     -6.40137168	     -7.28972735	      3.59727473	     36.79965344	     89.22533168	    -23.62300001	     -2.04352164
      0.11000000	     -0.36360138	      4.04207425	    -85.71086377	      0.21655274	      0.84466526	     -0.07577342	     -6.50389923	      3.85249819	    -11.95058510	     15.51318497	      0.27075616	     10.36713023	      0.00000000	      0.00000000	     26.92742578	     -0.72182670	     -6.57062803	      6.87553043	      0.12000064	     -9.97562908	      0.00000000	      0.00000000	     -4.77679230	     -0.95097953	     -1.10024178	     -4.05743132	     -6.12676020	      4.72529178	     36.78375240	     89.07232177	    -23.54558746	      5.07526697	     -6.36565184	     -7.41900125	      3.85620653	     36.45894364	     89.21974913	    -23.64806788	     -2.06796979
      0.12000000	     -0.38887366	      4.16115005	    -85.77767891	      0.21771329	      0.84456321	     -0.07107879	     -6.64613796	      3.75596534	    -11.88114975	     15.63969644	      0.27296420	     10.27433816	      0.00000000	      0.00000000	     26.75632775	     -0.75761590	     -6.57376244	      6.85731330	      0.11968269	    -10.22676551	      0.00000000	      0.00000000	     -4.69991821	     -0.95717441	     -1.24541291	     -4.09046836	     -6.03948726	      4.71528062	     36.77732487	     89.06741264	    -23.55723157	      5.06089586	     -6.48517468	     -7.50035479	      3.86519962	     36.26265100	     89.20741059	    -23.65820411	     -2.04368548
